solid ascii
  facet normal -9.987955e-001 4.906767e-002 0.000000e+000
    outer loop
      vertex   -5.000000e-002 2.200000e-001 0.000000e+000
      vertex   -5.000000e-002 2.200000e-001 1.500000e-002
      vertex   -4.985554e-002 2.229405e-001 0.000000e+000
    endloop
  endfacet
  facet normal -9.987955e-001 4.906767e-002 0.000000e+000
    outer loop
      vertex   -4.985554e-002 2.229405e-001 0.000000e+000
      vertex   -5.000000e-002 2.200000e-001 1.500000e-002
      vertex   -4.985554e-002 2.229405e-001 1.500000e-002
    endloop
  endfacet
  facet normal -9.891765e-001 1.467305e-001 0.000000e+000
    outer loop
      vertex   -4.942356e-002 2.258527e-001 1.500000e-002
      vertex   -4.985554e-002 2.229405e-001 0.000000e+000
      vertex   -4.985554e-002 2.229405e-001 1.500000e-002
    endloop
  endfacet
  facet normal -9.891765e-001 1.467305e-001 0.000000e+000
    outer loop
      vertex   -4.942356e-002 2.258527e-001 1.500000e-002
      vertex   -4.942356e-002 2.258527e-001 0.000000e+000
      vertex   -4.985554e-002 2.229405e-001 0.000000e+000
    endloop
  endfacet
  facet normal -9.700313e-001 2.429802e-001 0.000000e+000
    outer loop
      vertex   -4.942356e-002 2.258527e-001 1.500000e-002
      vertex   -4.870821e-002 2.287085e-001 1.500000e-002
      vertex   -4.942356e-002 2.258527e-001 0.000000e+000
    endloop
  endfacet
  facet normal -9.700313e-001 2.429802e-001 0.000000e+000
    outer loop
      vertex   -4.942356e-002 2.258527e-001 0.000000e+000
      vertex   -4.870821e-002 2.287085e-001 1.500000e-002
      vertex   -4.870821e-002 2.287085e-001 0.000000e+000
    endloop
  endfacet
  facet normal -9.415441e-001 3.368899e-001 0.000000e+000
    outer loop
      vertex   -4.870821e-002 2.287085e-001 0.000000e+000
      vertex   -4.870821e-002 2.287085e-001 1.500000e-002
      vertex   -4.771639e-002 2.314805e-001 1.500000e-002
    endloop
  endfacet
  facet normal -9.039893e-001 4.275551e-001 0.000000e+000
    outer loop
      vertex   -4.771639e-002 2.314805e-001 0.000000e+000
      vertex   -4.771639e-002 2.314805e-001 1.500000e-002
      vertex   -4.645764e-002 2.341419e-001 1.500000e-002
    endloop
  endfacet
  facet normal -8.577286e-001 5.141027e-001 0.000000e+000
    outer loop
      vertex   -4.645764e-002 2.341419e-001 0.000000e+000
      vertex   -4.645764e-002 2.341419e-001 1.500000e-002
      vertex   -4.494409e-002 2.366671e-001 0.000000e+000
    endloop
  endfacet
  facet normal -9.039893e-001 4.275551e-001 0.000000e+000
    outer loop
      vertex   -4.645764e-002 2.341419e-001 0.000000e+000
      vertex   -4.771639e-002 2.314805e-001 0.000000e+000
      vertex   -4.645764e-002 2.341419e-001 1.500000e-002
    endloop
  endfacet
  facet normal -8.577286e-001 5.141027e-001 0.000000e+000
    outer loop
      vertex   -4.645764e-002 2.341419e-001 1.500000e-002
      vertex   -4.494409e-002 2.366671e-001 1.500000e-002
      vertex   -4.494409e-002 2.366671e-001 0.000000e+000
    endloop
  endfacet
  facet normal -8.032075e-001 5.956993e-001 0.000000e+000
    outer loop
      vertex   -4.494409e-002 2.366671e-001 0.000000e+000
      vertex   -4.494409e-002 2.366671e-001 1.500000e-002
      vertex   -4.319031e-002 2.390318e-001 1.500000e-002
    endloop
  endfacet
  facet normal -7.409511e-001 6.715590e-001 0.000000e+000
    outer loop
      vertex   -4.319031e-002 2.390318e-001 0.000000e+000
      vertex   -4.319031e-002 2.390318e-001 1.500000e-002
      vertex   -4.121320e-002 2.412132e-001 1.500000e-002
    endloop
  endfacet
  facet normal -6.715590e-001 7.409511e-001 0.000000e+000
    outer loop
      vertex   -4.121320e-002 2.412132e-001 0.000000e+000
      vertex   -4.121320e-002 2.412132e-001 1.500000e-002
      vertex   -3.903180e-002 2.431903e-001 1.500000e-002
    endloop
  endfacet
  facet normal -5.956993e-001 8.032075e-001 0.000000e+000
    outer loop
      vertex   -3.903180e-002 2.431903e-001 0.000000e+000
      vertex   -3.903180e-002 2.431903e-001 1.500000e-002
      vertex   -3.666711e-002 2.449441e-001 1.500000e-002
    endloop
  endfacet
  facet normal -5.141027e-001 8.577286e-001 0.000000e+000
    outer loop
      vertex   -3.666711e-002 2.449441e-001 0.000000e+000
      vertex   -3.666711e-002 2.449441e-001 1.500000e-002
      vertex   -3.414190e-002 2.464576e-001 0.000000e+000
    endloop
  endfacet
  facet normal -5.956993e-001 8.032075e-001 0.000000e+000
    outer loop
      vertex   -3.666711e-002 2.449441e-001 0.000000e+000
      vertex   -3.903180e-002 2.431903e-001 0.000000e+000
      vertex   -3.666711e-002 2.449441e-001 1.500000e-002
    endloop
  endfacet
  facet normal -5.141027e-001 8.577286e-001 0.000000e+000
    outer loop
      vertex   -3.666711e-002 2.449441e-001 1.500000e-002
      vertex   -3.414190e-002 2.464576e-001 1.500000e-002
      vertex   -3.414190e-002 2.464576e-001 0.000000e+000
    endloop
  endfacet
  facet normal -4.275551e-001 9.039893e-001 0.000000e+000
    outer loop
      vertex   -3.414190e-002 2.464576e-001 0.000000e+000
      vertex   -3.414190e-002 2.464576e-001 1.500000e-002
      vertex   -3.148050e-002 2.477164e-001 1.500000e-002
    endloop
  endfacet
  facet normal -3.368899e-001 9.415441e-001 0.000000e+000
    outer loop
      vertex   -3.148050e-002 2.477164e-001 0.000000e+000
      vertex   -3.148050e-002 2.477164e-001 1.500000e-002
      vertex   -2.870854e-002 2.487082e-001 1.500000e-002
    endloop
  endfacet
  facet normal -2.429802e-001 9.700313e-001 0.000000e+000
    outer loop
      vertex   -2.870854e-002 2.487082e-001 0.000000e+000
      vertex   -2.870854e-002 2.487082e-001 1.500000e-002
      vertex   -2.585271e-002 2.494236e-001 1.500000e-002
    endloop
  endfacet
  facet normal -1.467305e-001 9.891765e-001 0.000000e+000
    outer loop
      vertex   -2.585271e-002 2.494236e-001 0.000000e+000
      vertex   -2.585271e-002 2.494236e-001 1.500000e-002
      vertex   -2.294051e-002 2.498555e-001 1.500000e-002
    endloop
  endfacet
  facet normal -4.906767e-002 9.987955e-001 0.000000e+000
    outer loop
      vertex   -2.294051e-002 2.498555e-001 0.000000e+000
      vertex   -2.294051e-002 2.498555e-001 1.500000e-002
      vertex   -2.000000e-002 2.500000e-001 0.000000e+000
    endloop
  endfacet
  facet normal -1.467305e-001 9.891765e-001 0.000000e+000
    outer loop
      vertex   -2.294051e-002 2.498555e-001 0.000000e+000
      vertex   -2.585271e-002 2.494236e-001 0.000000e+000
      vertex   -2.294051e-002 2.498555e-001 1.500000e-002
    endloop
  endfacet
  facet normal -4.906767e-002 9.987955e-001 0.000000e+000
    outer loop
      vertex   -2.294051e-002 2.498555e-001 1.500000e-002
      vertex   -2.000000e-002 2.500000e-001 1.500000e-002
      vertex   -2.000000e-002 2.500000e-001 0.000000e+000
    endloop
  endfacet
  facet normal -2.429802e-001 9.700313e-001 0.000000e+000
    outer loop
      vertex   -2.585271e-002 2.494236e-001 0.000000e+000
      vertex   -2.870854e-002 2.487082e-001 0.000000e+000
      vertex   -2.585271e-002 2.494236e-001 1.500000e-002
    endloop
  endfacet
  facet normal -3.368899e-001 9.415441e-001 0.000000e+000
    outer loop
      vertex   -2.870854e-002 2.487082e-001 0.000000e+000
      vertex   -3.148050e-002 2.477164e-001 0.000000e+000
      vertex   -2.870854e-002 2.487082e-001 1.500000e-002
    endloop
  endfacet
  facet normal -4.275551e-001 9.039893e-001 0.000000e+000
    outer loop
      vertex   -3.148050e-002 2.477164e-001 0.000000e+000
      vertex   -3.414190e-002 2.464576e-001 0.000000e+000
      vertex   -3.148050e-002 2.477164e-001 1.500000e-002
    endloop
  endfacet
  facet normal -6.715590e-001 7.409511e-001 0.000000e+000
    outer loop
      vertex   -3.903180e-002 2.431903e-001 0.000000e+000
      vertex   -4.121320e-002 2.412132e-001 0.000000e+000
      vertex   -3.903180e-002 2.431903e-001 1.500000e-002
    endloop
  endfacet
  facet normal -7.409511e-001 6.715590e-001 0.000000e+000
    outer loop
      vertex   -4.121320e-002 2.412132e-001 0.000000e+000
      vertex   -4.319031e-002 2.390318e-001 0.000000e+000
      vertex   -4.121320e-002 2.412132e-001 1.500000e-002
    endloop
  endfacet
  facet normal -8.032075e-001 5.956993e-001 0.000000e+000
    outer loop
      vertex   -4.319031e-002 2.390318e-001 0.000000e+000
      vertex   -4.494409e-002 2.366671e-001 0.000000e+000
      vertex   -4.319031e-002 2.390318e-001 1.500000e-002
    endloop
  endfacet
  facet normal -9.415441e-001 3.368899e-001 0.000000e+000
    outer loop
      vertex   -4.771639e-002 2.314805e-001 0.000000e+000
      vertex   -4.870821e-002 2.287085e-001 0.000000e+000
      vertex   -4.771639e-002 2.314805e-001 1.500000e-002
    endloop
  endfacet
  facet normal -1.000000e+000 0.000000e+000 0.000000e+000
    outer loop
      vertex   -5.000000e-002 2.200000e-001 0.000000e+000
      vertex   -5.000000e-002 3.000000e-002 0.000000e+000
      vertex   -5.000000e-002 2.200000e-001 1.500000e-002
    endloop
  endfacet
  facet normal -1.000000e+000 -0.000000e+000 0.000000e+000
    outer loop
      vertex   -5.000000e-002 2.200000e-001 1.500000e-002
      vertex   -5.000000e-002 3.000000e-002 0.000000e+000
      vertex   -5.000000e-002 3.000000e-002 1.500000e-002
    endloop
  endfacet
  facet normal 0.000000e+000 -0.000000e+000 -1.000000e+000
    outer loop
      vertex   -4.985554e-002 2.229405e-001 0.000000e+000
      vertex   -4.942356e-002 2.258527e-001 0.000000e+000
      vertex   -5.000000e-002 2.200000e-001 0.000000e+000
    endloop
  endfacet
  facet normal 0.000000e+000 0.000000e+000 -1.000000e+000
    outer loop
      vertex   -5.000000e-002 2.200000e-001 0.000000e+000
      vertex   -4.942356e-002 2.258527e-001 0.000000e+000
      vertex   -4.870821e-002 2.287085e-001 0.000000e+000
    endloop
  endfacet
  facet normal -0.000000e+000 0.000000e+000 -1.000000e+000
    outer loop
      vertex   -4.771639e-002 2.314805e-001 0.000000e+000
      vertex   -5.000000e-002 2.200000e-001 0.000000e+000
      vertex   -4.870821e-002 2.287085e-001 0.000000e+000
    endloop
  endfacet
  facet normal 0.000000e+000 -0.000000e+000 -1.000000e+000
    outer loop
      vertex   -4.771639e-002 2.314805e-001 0.000000e+000
      vertex   -4.645764e-002 2.341419e-001 0.000000e+000
      vertex   -5.000000e-002 2.200000e-001 0.000000e+000
    endloop
  endfacet
  facet normal 0.000000e+000 0.000000e+000 -1.000000e+000
    outer loop
      vertex   -5.000000e-002 2.200000e-001 0.000000e+000
      vertex   -4.645764e-002 2.341419e-001 0.000000e+000
      vertex   -4.494409e-002 2.366671e-001 0.000000e+000
    endloop
  endfacet
  facet normal -0.000000e+000 0.000000e+000 -1.000000e+000
    outer loop
      vertex   -4.319031e-002 2.390318e-001 0.000000e+000
      vertex   -5.000000e-002 2.200000e-001 0.000000e+000
      vertex   -4.494409e-002 2.366671e-001 0.000000e+000
    endloop
  endfacet
  facet normal 0.000000e+000 -0.000000e+000 -1.000000e+000
    outer loop
      vertex   -4.319031e-002 2.390318e-001 0.000000e+000
      vertex   -4.121320e-002 2.412132e-001 0.000000e+000
      vertex   -5.000000e-002 2.200000e-001 0.000000e+000
    endloop
  endfacet
  facet normal 0.000000e+000 0.000000e+000 -1.000000e+000
    outer loop
      vertex   -5.000000e-002 2.200000e-001 0.000000e+000
      vertex   -4.121320e-002 2.412132e-001 0.000000e+000
      vertex   -3.903180e-002 2.431903e-001 0.000000e+000
    endloop
  endfacet
  facet normal -0.000000e+000 0.000000e+000 -1.000000e+000
    outer loop
      vertex   -3.666711e-002 2.449441e-001 0.000000e+000
      vertex   -5.000000e-002 2.200000e-001 0.000000e+000
      vertex   -3.903180e-002 2.431903e-001 0.000000e+000
    endloop
  endfacet
  facet normal 0.000000e+000 -0.000000e+000 -1.000000e+000
    outer loop
      vertex   -3.666711e-002 2.449441e-001 0.000000e+000
      vertex   -3.414190e-002 2.464576e-001 0.000000e+000
      vertex   -5.000000e-002 2.200000e-001 0.000000e+000
    endloop
  endfacet
  facet normal 0.000000e+000 0.000000e+000 -1.000000e+000
    outer loop
      vertex   -5.000000e-002 2.200000e-001 0.000000e+000
      vertex   -3.414190e-002 2.464576e-001 0.000000e+000
      vertex   -3.148050e-002 2.477164e-001 0.000000e+000
    endloop
  endfacet
  facet normal -0.000000e+000 0.000000e+000 -1.000000e+000
    outer loop
      vertex   -2.870854e-002 2.487082e-001 0.000000e+000
      vertex   -5.000000e-002 2.200000e-001 0.000000e+000
      vertex   -3.148050e-002 2.477164e-001 0.000000e+000
    endloop
  endfacet
  facet normal 0.000000e+000 -0.000000e+000 -1.000000e+000
    outer loop
      vertex   -2.870854e-002 2.487082e-001 0.000000e+000
      vertex   -2.585271e-002 2.494236e-001 0.000000e+000
      vertex   -5.000000e-002 2.200000e-001 0.000000e+000
    endloop
  endfacet
  facet normal 0.000000e+000 0.000000e+000 -1.000000e+000
    outer loop
      vertex   -5.000000e-002 2.200000e-001 0.000000e+000
      vertex   -2.585271e-002 2.494236e-001 0.000000e+000
      vertex   -2.294051e-002 2.498555e-001 0.000000e+000
    endloop
  endfacet
  facet normal -0.000000e+000 0.000000e+000 -1.000000e+000
    outer loop
      vertex   -2.000000e-002 2.500000e-001 0.000000e+000
      vertex   -5.000000e-002 2.200000e-001 0.000000e+000
      vertex   -2.294051e-002 2.498555e-001 0.000000e+000
    endloop
  endfacet
  facet normal 0.000000e+000 -0.000000e+000 -1.000000e+000
    outer loop
      vertex   -2.000000e-002 2.500000e-001 0.000000e+000
      vertex   2.000000e-002 2.500000e-001 0.000000e+000
      vertex   -5.000000e-002 2.200000e-001 0.000000e+000
    endloop
  endfacet
  facet normal 0.000000e+000 0.000000e+000 -1.000000e+000
    outer loop
      vertex   -5.000000e-002 2.200000e-001 0.000000e+000
      vertex   2.000000e-002 2.500000e-001 0.000000e+000
      vertex   5.000000e-002 2.200000e-001 0.000000e+000
    endloop
  endfacet
  facet normal 0.000000e+000 0.000000e+000 -1.000000e+000
    outer loop
      vertex   -5.000000e-002 3.000000e-002 0.000000e+000
      vertex   5.000000e-002 2.200000e-001 0.000000e+000
      vertex   5.000000e-002 3.000000e-002 0.000000e+000
    endloop
  endfacet
  facet normal 0.000000e+000 -0.000000e+000 -1.000000e+000
    outer loop
      vertex   -4.985554e-002 2.705949e-002 0.000000e+000
      vertex   5.000000e-002 3.000000e-002 0.000000e+000
      vertex   4.985554e-002 2.705949e-002 0.000000e+000
    endloop
  endfacet
  facet normal 0.000000e+000 -0.000000e+000 -1.000000e+000
    outer loop
      vertex   -4.942356e-002 2.414729e-002 0.000000e+000
      vertex   4.985554e-002 2.705949e-002 0.000000e+000
      vertex   4.942356e-002 2.414729e-002 0.000000e+000
    endloop
  endfacet
  facet normal 0.000000e+000 -0.000000e+000 -1.000000e+000
    outer loop
      vertex   -4.870821e-002 2.129146e-002 0.000000e+000
      vertex   4.942356e-002 2.414729e-002 0.000000e+000
      vertex   4.870821e-002 2.129146e-002 0.000000e+000
    endloop
  endfacet
  facet normal 0.000000e+000 -0.000000e+000 -1.000000e+000
    outer loop
      vertex   -4.771639e-002 1.851950e-002 0.000000e+000
      vertex   4.870821e-002 2.129146e-002 0.000000e+000
      vertex   4.771639e-002 1.851950e-002 0.000000e+000
    endloop
  endfacet
  facet normal 0.000000e+000 -0.000000e+000 -1.000000e+000
    outer loop
      vertex   -4.645764e-002 1.585810e-002 0.000000e+000
      vertex   4.771639e-002 1.851950e-002 0.000000e+000
      vertex   4.645764e-002 1.585810e-002 0.000000e+000
    endloop
  endfacet
  facet normal 0.000000e+000 -0.000000e+000 -1.000000e+000
    outer loop
      vertex   -4.494409e-002 1.333289e-002 0.000000e+000
      vertex   4.645764e-002 1.585810e-002 0.000000e+000
      vertex   4.494409e-002 1.333289e-002 0.000000e+000
    endloop
  endfacet
  facet normal 0.000000e+000 -0.000000e+000 -1.000000e+000
    outer loop
      vertex   -4.319031e-002 1.096820e-002 0.000000e+000
      vertex   4.494409e-002 1.333289e-002 0.000000e+000
      vertex   4.319031e-002 1.096820e-002 0.000000e+000
    endloop
  endfacet
  facet normal 0.000000e+000 -0.000000e+000 -1.000000e+000
    outer loop
      vertex   -4.121320e-002 8.786797e-003 0.000000e+000
      vertex   4.319031e-002 1.096820e-002 0.000000e+000
      vertex   4.121320e-002 8.786797e-003 0.000000e+000
    endloop
  endfacet
  facet normal 0.000000e+000 -0.000000e+000 -1.000000e+000
    outer loop
      vertex   -3.903180e-002 6.809686e-003 0.000000e+000
      vertex   4.121320e-002 8.786797e-003 0.000000e+000
      vertex   3.903180e-002 6.809686e-003 0.000000e+000
    endloop
  endfacet
  facet normal 0.000000e+000 -0.000000e+000 -1.000000e+000
    outer loop
      vertex   -3.666711e-002 5.055912e-003 0.000000e+000
      vertex   3.903180e-002 6.809686e-003 0.000000e+000
      vertex   3.666711e-002 5.055912e-003 0.000000e+000
    endloop
  endfacet
  facet normal 0.000000e+000 -0.000000e+000 -1.000000e+000
    outer loop
      vertex   -3.414190e-002 3.542362e-003 0.000000e+000
      vertex   3.666711e-002 5.055912e-003 0.000000e+000
      vertex   3.414190e-002 3.542362e-003 0.000000e+000
    endloop
  endfacet
  facet normal 0.000000e+000 -0.000000e+000 -1.000000e+000
    outer loop
      vertex   -3.148050e-002 2.283614e-003 0.000000e+000
      vertex   3.414190e-002 3.542362e-003 0.000000e+000
      vertex   3.148050e-002 2.283614e-003 0.000000e+000
    endloop
  endfacet
  facet normal 0.000000e+000 -0.000000e+000 -1.000000e+000
    outer loop
      vertex   -2.870854e-002 1.291790e-003 0.000000e+000
      vertex   3.148050e-002 2.283614e-003 0.000000e+000
      vertex   2.870854e-002 1.291790e-003 0.000000e+000
    endloop
  endfacet
  facet normal 0.000000e+000 -0.000000e+000 -1.000000e+000
    outer loop
      vertex   -2.585271e-002 5.764416e-004 0.000000e+000
      vertex   2.870854e-002 1.291790e-003 0.000000e+000
      vertex   2.585271e-002 5.764416e-004 0.000000e+000
    endloop
  endfacet
  facet normal 0.000000e+000 -0.000000e+000 -1.000000e+000
    outer loop
      vertex   -2.294051e-002 1.444582e-004 0.000000e+000
      vertex   2.585271e-002 5.764416e-004 0.000000e+000
      vertex   2.294051e-002 1.444582e-004 0.000000e+000
    endloop
  endfacet
  facet normal 0.000000e+000 -0.000000e+000 -1.000000e+000
    outer loop
      vertex   -2.000000e-002 0.000000e+000 0.000000e+000
      vertex   2.294051e-002 1.444582e-004 0.000000e+000
      vertex   2.000000e-002 0.000000e+000 0.000000e+000
    endloop
  endfacet
  facet normal 0.000000e+000 0.000000e+000 -1.000000e+000
    outer loop
      vertex   -2.000000e-002 0.000000e+000 0.000000e+000
      vertex   -2.294051e-002 1.444582e-004 0.000000e+000
      vertex   2.294051e-002 1.444582e-004 0.000000e+000
    endloop
  endfacet
  facet normal 0.000000e+000 0.000000e+000 -1.000000e+000
    outer loop
      vertex   2.000000e-002 2.500000e-001 0.000000e+000
      vertex   2.294051e-002 2.498555e-001 0.000000e+000
      vertex   5.000000e-002 2.200000e-001 0.000000e+000
    endloop
  endfacet
  facet normal 0.000000e+000 0.000000e+000 -1.000000e+000
    outer loop
      vertex   5.000000e-002 2.200000e-001 0.000000e+000
      vertex   2.294051e-002 2.498555e-001 0.000000e+000
      vertex   2.585271e-002 2.494236e-001 0.000000e+000
    endloop
  endfacet
  facet normal -0.000000e+000 -0.000000e+000 -1.000000e+000
    outer loop
      vertex   2.870854e-002 2.487082e-001 0.000000e+000
      vertex   5.000000e-002 2.200000e-001 0.000000e+000
      vertex   2.585271e-002 2.494236e-001 0.000000e+000
    endloop
  endfacet
  facet normal 0.000000e+000 0.000000e+000 -1.000000e+000
    outer loop
      vertex   2.870854e-002 2.487082e-001 0.000000e+000
      vertex   3.148050e-002 2.477164e-001 0.000000e+000
      vertex   5.000000e-002 2.200000e-001 0.000000e+000
    endloop
  endfacet
  facet normal 0.000000e+000 0.000000e+000 -1.000000e+000
    outer loop
      vertex   5.000000e-002 2.200000e-001 0.000000e+000
      vertex   3.148050e-002 2.477164e-001 0.000000e+000
      vertex   3.414190e-002 2.464576e-001 0.000000e+000
    endloop
  endfacet
  facet normal -0.000000e+000 -0.000000e+000 -1.000000e+000
    outer loop
      vertex   3.666711e-002 2.449441e-001 0.000000e+000
      vertex   5.000000e-002 2.200000e-001 0.000000e+000
      vertex   3.414190e-002 2.464576e-001 0.000000e+000
    endloop
  endfacet
  facet normal 0.000000e+000 0.000000e+000 -1.000000e+000
    outer loop
      vertex   3.666711e-002 2.449441e-001 0.000000e+000
      vertex   3.903180e-002 2.431903e-001 0.000000e+000
      vertex   5.000000e-002 2.200000e-001 0.000000e+000
    endloop
  endfacet
  facet normal 0.000000e+000 0.000000e+000 -1.000000e+000
    outer loop
      vertex   5.000000e-002 2.200000e-001 0.000000e+000
      vertex   3.903180e-002 2.431903e-001 0.000000e+000
      vertex   4.121320e-002 2.412132e-001 0.000000e+000
    endloop
  endfacet
  facet normal -0.000000e+000 -0.000000e+000 -1.000000e+000
    outer loop
      vertex   4.319031e-002 2.390318e-001 0.000000e+000
      vertex   5.000000e-002 2.200000e-001 0.000000e+000
      vertex   4.121320e-002 2.412132e-001 0.000000e+000
    endloop
  endfacet
  facet normal 0.000000e+000 0.000000e+000 -1.000000e+000
    outer loop
      vertex   4.319031e-002 2.390318e-001 0.000000e+000
      vertex   4.494409e-002 2.366671e-001 0.000000e+000
      vertex   5.000000e-002 2.200000e-001 0.000000e+000
    endloop
  endfacet
  facet normal 0.000000e+000 0.000000e+000 -1.000000e+000
    outer loop
      vertex   5.000000e-002 2.200000e-001 0.000000e+000
      vertex   4.494409e-002 2.366671e-001 0.000000e+000
      vertex   4.645764e-002 2.341419e-001 0.000000e+000
    endloop
  endfacet
  facet normal -0.000000e+000 -0.000000e+000 -1.000000e+000
    outer loop
      vertex   4.771639e-002 2.314805e-001 0.000000e+000
      vertex   5.000000e-002 2.200000e-001 0.000000e+000
      vertex   4.645764e-002 2.341419e-001 0.000000e+000
    endloop
  endfacet
  facet normal 0.000000e+000 0.000000e+000 -1.000000e+000
    outer loop
      vertex   4.771639e-002 2.314805e-001 0.000000e+000
      vertex   4.870821e-002 2.287085e-001 0.000000e+000
      vertex   5.000000e-002 2.200000e-001 0.000000e+000
    endloop
  endfacet
  facet normal 0.000000e+000 0.000000e+000 -1.000000e+000
    outer loop
      vertex   5.000000e-002 2.200000e-001 0.000000e+000
      vertex   4.870821e-002 2.287085e-001 0.000000e+000
      vertex   4.942356e-002 2.258527e-001 0.000000e+000
    endloop
  endfacet
  facet normal -0.000000e+000 -0.000000e+000 -1.000000e+000
    outer loop
      vertex   4.985554e-002 2.229405e-001 0.000000e+000
      vertex   5.000000e-002 2.200000e-001 0.000000e+000
      vertex   4.942356e-002 2.258527e-001 0.000000e+000
    endloop
  endfacet
  facet normal 0.000000e+000 0.000000e+000 -1.000000e+000
    outer loop
      vertex   -2.294051e-002 1.444582e-004 0.000000e+000
      vertex   -2.585271e-002 5.764416e-004 0.000000e+000
      vertex   2.585271e-002 5.764416e-004 0.000000e+000
    endloop
  endfacet
  facet normal 0.000000e+000 0.000000e+000 -1.000000e+000
    outer loop
      vertex   -2.585271e-002 5.764416e-004 0.000000e+000
      vertex   -2.870854e-002 1.291790e-003 0.000000e+000
      vertex   2.870854e-002 1.291790e-003 0.000000e+000
    endloop
  endfacet
  facet normal 0.000000e+000 0.000000e+000 -1.000000e+000
    outer loop
      vertex   -2.870854e-002 1.291790e-003 0.000000e+000
      vertex   -3.148050e-002 2.283614e-003 0.000000e+000
      vertex   3.148050e-002 2.283614e-003 0.000000e+000
    endloop
  endfacet
  facet normal 0.000000e+000 0.000000e+000 -1.000000e+000
    outer loop
      vertex   -3.148050e-002 2.283614e-003 0.000000e+000
      vertex   -3.414190e-002 3.542362e-003 0.000000e+000
      vertex   3.414190e-002 3.542362e-003 0.000000e+000
    endloop
  endfacet
  facet normal 0.000000e+000 0.000000e+000 -1.000000e+000
    outer loop
      vertex   -3.414190e-002 3.542362e-003 0.000000e+000
      vertex   -3.666711e-002 5.055912e-003 0.000000e+000
      vertex   3.666711e-002 5.055912e-003 0.000000e+000
    endloop
  endfacet
  facet normal 0.000000e+000 0.000000e+000 -1.000000e+000
    outer loop
      vertex   -3.666711e-002 5.055912e-003 0.000000e+000
      vertex   -3.903180e-002 6.809686e-003 0.000000e+000
      vertex   3.903180e-002 6.809686e-003 0.000000e+000
    endloop
  endfacet
  facet normal 0.000000e+000 0.000000e+000 -1.000000e+000
    outer loop
      vertex   -3.903180e-002 6.809686e-003 0.000000e+000
      vertex   -4.121320e-002 8.786797e-003 0.000000e+000
      vertex   4.121320e-002 8.786797e-003 0.000000e+000
    endloop
  endfacet
  facet normal 0.000000e+000 0.000000e+000 -1.000000e+000
    outer loop
      vertex   -4.121320e-002 8.786797e-003 0.000000e+000
      vertex   -4.319031e-002 1.096820e-002 0.000000e+000
      vertex   4.319031e-002 1.096820e-002 0.000000e+000
    endloop
  endfacet
  facet normal 0.000000e+000 0.000000e+000 -1.000000e+000
    outer loop
      vertex   -4.319031e-002 1.096820e-002 0.000000e+000
      vertex   -4.494409e-002 1.333289e-002 0.000000e+000
      vertex   4.494409e-002 1.333289e-002 0.000000e+000
    endloop
  endfacet
  facet normal 0.000000e+000 0.000000e+000 -1.000000e+000
    outer loop
      vertex   -4.494409e-002 1.333289e-002 0.000000e+000
      vertex   -4.645764e-002 1.585810e-002 0.000000e+000
      vertex   4.645764e-002 1.585810e-002 0.000000e+000
    endloop
  endfacet
  facet normal 0.000000e+000 0.000000e+000 -1.000000e+000
    outer loop
      vertex   -4.645764e-002 1.585810e-002 0.000000e+000
      vertex   -4.771639e-002 1.851950e-002 0.000000e+000
      vertex   4.771639e-002 1.851950e-002 0.000000e+000
    endloop
  endfacet
  facet normal 0.000000e+000 0.000000e+000 -1.000000e+000
    outer loop
      vertex   -4.771639e-002 1.851950e-002 0.000000e+000
      vertex   -4.870821e-002 2.129146e-002 0.000000e+000
      vertex   4.870821e-002 2.129146e-002 0.000000e+000
    endloop
  endfacet
  facet normal 0.000000e+000 0.000000e+000 -1.000000e+000
    outer loop
      vertex   -4.870821e-002 2.129146e-002 0.000000e+000
      vertex   -4.942356e-002 2.414729e-002 0.000000e+000
      vertex   4.942356e-002 2.414729e-002 0.000000e+000
    endloop
  endfacet
  facet normal 0.000000e+000 0.000000e+000 -1.000000e+000
    outer loop
      vertex   -4.942356e-002 2.414729e-002 0.000000e+000
      vertex   -4.985554e-002 2.705949e-002 0.000000e+000
      vertex   4.985554e-002 2.705949e-002 0.000000e+000
    endloop
  endfacet
  facet normal 0.000000e+000 0.000000e+000 -1.000000e+000
    outer loop
      vertex   -4.985554e-002 2.705949e-002 0.000000e+000
      vertex   -5.000000e-002 3.000000e-002 0.000000e+000
      vertex   5.000000e-002 3.000000e-002 0.000000e+000
    endloop
  endfacet
  facet normal 0.000000e+000 0.000000e+000 -1.000000e+000
    outer loop
      vertex   -5.000000e-002 3.000000e-002 0.000000e+000
      vertex   -5.000000e-002 2.200000e-001 0.000000e+000
      vertex   5.000000e-002 2.200000e-001 0.000000e+000
    endloop
  endfacet
  facet normal -4.906767e-002 -9.987955e-001 0.000000e+000
    outer loop
      vertex   -2.000000e-002 0.000000e+000 0.000000e+000
      vertex   -2.000000e-002 0.000000e+000 1.500000e-002
      vertex   -2.294051e-002 1.444582e-004 0.000000e+000
    endloop
  endfacet
  facet normal -4.906767e-002 -9.987955e-001 0.000000e+000
    outer loop
      vertex   -2.294051e-002 1.444582e-004 0.000000e+000
      vertex   -2.000000e-002 0.000000e+000 1.500000e-002
      vertex   -2.294051e-002 1.444582e-004 1.500000e-002
    endloop
  endfacet
  facet normal -1.467305e-001 -9.891765e-001 0.000000e+000
    outer loop
      vertex   -2.585271e-002 5.764416e-004 1.500000e-002
      vertex   -2.294051e-002 1.444582e-004 0.000000e+000
      vertex   -2.294051e-002 1.444582e-004 1.500000e-002
    endloop
  endfacet
  facet normal -1.467305e-001 -9.891765e-001 -0.000000e+000
    outer loop
      vertex   -2.585271e-002 5.764416e-004 1.500000e-002
      vertex   -2.585271e-002 5.764416e-004 0.000000e+000
      vertex   -2.294051e-002 1.444582e-004 0.000000e+000
    endloop
  endfacet
  facet normal -2.429802e-001 -9.700313e-001 0.000000e+000
    outer loop
      vertex   -2.585271e-002 5.764416e-004 1.500000e-002
      vertex   -2.870854e-002 1.291790e-003 1.500000e-002
      vertex   -2.585271e-002 5.764416e-004 0.000000e+000
    endloop
  endfacet
  facet normal -2.429802e-001 -9.700313e-001 -0.000000e+000
    outer loop
      vertex   -2.585271e-002 5.764416e-004 0.000000e+000
      vertex   -2.870854e-002 1.291790e-003 1.500000e-002
      vertex   -2.870854e-002 1.291790e-003 0.000000e+000
    endloop
  endfacet
  facet normal -3.368899e-001 -9.415441e-001 0.000000e+000
    outer loop
      vertex   -2.870854e-002 1.291790e-003 0.000000e+000
      vertex   -2.870854e-002 1.291790e-003 1.500000e-002
      vertex   -3.148050e-002 2.283614e-003 1.500000e-002
    endloop
  endfacet
  facet normal -4.275551e-001 -9.039893e-001 0.000000e+000
    outer loop
      vertex   -3.148050e-002 2.283614e-003 0.000000e+000
      vertex   -3.148050e-002 2.283614e-003 1.500000e-002
      vertex   -3.414190e-002 3.542362e-003 1.500000e-002
    endloop
  endfacet
  facet normal -5.141027e-001 -8.577286e-001 0.000000e+000
    outer loop
      vertex   -3.414190e-002 3.542362e-003 0.000000e+000
      vertex   -3.414190e-002 3.542362e-003 1.500000e-002
      vertex   -3.666711e-002 5.055912e-003 0.000000e+000
    endloop
  endfacet
  facet normal -4.275551e-001 -9.039893e-001 0.000000e+000
    outer loop
      vertex   -3.414190e-002 3.542362e-003 0.000000e+000
      vertex   -3.148050e-002 2.283614e-003 0.000000e+000
      vertex   -3.414190e-002 3.542362e-003 1.500000e-002
    endloop
  endfacet
  facet normal -5.141027e-001 -8.577286e-001 -0.000000e+000
    outer loop
      vertex   -3.414190e-002 3.542362e-003 1.500000e-002
      vertex   -3.666711e-002 5.055912e-003 1.500000e-002
      vertex   -3.666711e-002 5.055912e-003 0.000000e+000
    endloop
  endfacet
  facet normal -5.956993e-001 -8.032075e-001 0.000000e+000
    outer loop
      vertex   -3.666711e-002 5.055912e-003 0.000000e+000
      vertex   -3.666711e-002 5.055912e-003 1.500000e-002
      vertex   -3.903180e-002 6.809686e-003 1.500000e-002
    endloop
  endfacet
  facet normal -6.715590e-001 -7.409511e-001 0.000000e+000
    outer loop
      vertex   -3.903180e-002 6.809686e-003 0.000000e+000
      vertex   -3.903180e-002 6.809686e-003 1.500000e-002
      vertex   -4.121320e-002 8.786797e-003 1.500000e-002
    endloop
  endfacet
  facet normal -7.409511e-001 -6.715590e-001 0.000000e+000
    outer loop
      vertex   -4.121320e-002 8.786797e-003 0.000000e+000
      vertex   -4.121320e-002 8.786797e-003 1.500000e-002
      vertex   -4.319031e-002 1.096820e-002 1.500000e-002
    endloop
  endfacet
  facet normal -8.032075e-001 -5.956993e-001 0.000000e+000
    outer loop
      vertex   -4.319031e-002 1.096820e-002 0.000000e+000
      vertex   -4.319031e-002 1.096820e-002 1.500000e-002
      vertex   -4.494409e-002 1.333289e-002 1.500000e-002
    endloop
  endfacet
  facet normal -8.577286e-001 -5.141027e-001 0.000000e+000
    outer loop
      vertex   -4.494409e-002 1.333289e-002 0.000000e+000
      vertex   -4.494409e-002 1.333289e-002 1.500000e-002
      vertex   -4.645764e-002 1.585810e-002 0.000000e+000
    endloop
  endfacet
  facet normal -8.032075e-001 -5.956993e-001 0.000000e+000
    outer loop
      vertex   -4.494409e-002 1.333289e-002 0.000000e+000
      vertex   -4.319031e-002 1.096820e-002 0.000000e+000
      vertex   -4.494409e-002 1.333289e-002 1.500000e-002
    endloop
  endfacet
  facet normal -8.577286e-001 -5.141027e-001 -0.000000e+000
    outer loop
      vertex   -4.494409e-002 1.333289e-002 1.500000e-002
      vertex   -4.645764e-002 1.585810e-002 1.500000e-002
      vertex   -4.645764e-002 1.585810e-002 0.000000e+000
    endloop
  endfacet
  facet normal -9.039893e-001 -4.275551e-001 0.000000e+000
    outer loop
      vertex   -4.645764e-002 1.585810e-002 0.000000e+000
      vertex   -4.645764e-002 1.585810e-002 1.500000e-002
      vertex   -4.771639e-002 1.851950e-002 1.500000e-002
    endloop
  endfacet
  facet normal -9.415441e-001 -3.368899e-001 0.000000e+000
    outer loop
      vertex   -4.771639e-002 1.851950e-002 0.000000e+000
      vertex   -4.771639e-002 1.851950e-002 1.500000e-002
      vertex   -4.870821e-002 2.129146e-002 1.500000e-002
    endloop
  endfacet
  facet normal -9.700313e-001 -2.429802e-001 0.000000e+000
    outer loop
      vertex   -4.870821e-002 2.129146e-002 0.000000e+000
      vertex   -4.870821e-002 2.129146e-002 1.500000e-002
      vertex   -4.942356e-002 2.414729e-002 1.500000e-002
    endloop
  endfacet
  facet normal -9.891765e-001 -1.467305e-001 0.000000e+000
    outer loop
      vertex   -4.942356e-002 2.414729e-002 0.000000e+000
      vertex   -4.942356e-002 2.414729e-002 1.500000e-002
      vertex   -4.985554e-002 2.705949e-002 1.500000e-002
    endloop
  endfacet
  facet normal -9.987955e-001 -4.906767e-002 0.000000e+000
    outer loop
      vertex   -4.985554e-002 2.705949e-002 0.000000e+000
      vertex   -4.985554e-002 2.705949e-002 1.500000e-002
      vertex   -5.000000e-002 3.000000e-002 0.000000e+000
    endloop
  endfacet
  facet normal -9.891765e-001 -1.467305e-001 0.000000e+000
    outer loop
      vertex   -4.985554e-002 2.705949e-002 0.000000e+000
      vertex   -4.942356e-002 2.414729e-002 0.000000e+000
      vertex   -4.985554e-002 2.705949e-002 1.500000e-002
    endloop
  endfacet
  facet normal -9.987955e-001 -4.906767e-002 -0.000000e+000
    outer loop
      vertex   -4.985554e-002 2.705949e-002 1.500000e-002
      vertex   -5.000000e-002 3.000000e-002 1.500000e-002
      vertex   -5.000000e-002 3.000000e-002 0.000000e+000
    endloop
  endfacet
  facet normal -9.700313e-001 -2.429802e-001 0.000000e+000
    outer loop
      vertex   -4.942356e-002 2.414729e-002 0.000000e+000
      vertex   -4.870821e-002 2.129146e-002 0.000000e+000
      vertex   -4.942356e-002 2.414729e-002 1.500000e-002
    endloop
  endfacet
  facet normal -9.415441e-001 -3.368899e-001 0.000000e+000
    outer loop
      vertex   -4.870821e-002 2.129146e-002 0.000000e+000
      vertex   -4.771639e-002 1.851950e-002 0.000000e+000
      vertex   -4.870821e-002 2.129146e-002 1.500000e-002
    endloop
  endfacet
  facet normal -9.039893e-001 -4.275551e-001 0.000000e+000
    outer loop
      vertex   -4.771639e-002 1.851950e-002 0.000000e+000
      vertex   -4.645764e-002 1.585810e-002 0.000000e+000
      vertex   -4.771639e-002 1.851950e-002 1.500000e-002
    endloop
  endfacet
  facet normal -7.409511e-001 -6.715590e-001 0.000000e+000
    outer loop
      vertex   -4.319031e-002 1.096820e-002 0.000000e+000
      vertex   -4.121320e-002 8.786797e-003 0.000000e+000
      vertex   -4.319031e-002 1.096820e-002 1.500000e-002
    endloop
  endfacet
  facet normal -6.715590e-001 -7.409511e-001 0.000000e+000
    outer loop
      vertex   -4.121320e-002 8.786797e-003 0.000000e+000
      vertex   -3.903180e-002 6.809686e-003 0.000000e+000
      vertex   -4.121320e-002 8.786797e-003 1.500000e-002
    endloop
  endfacet
  facet normal -5.956993e-001 -8.032075e-001 0.000000e+000
    outer loop
      vertex   -3.903180e-002 6.809686e-003 0.000000e+000
      vertex   -3.666711e-002 5.055912e-003 0.000000e+000
      vertex   -3.903180e-002 6.809686e-003 1.500000e-002
    endloop
  endfacet
  facet normal -3.368899e-001 -9.415441e-001 0.000000e+000
    outer loop
      vertex   -3.148050e-002 2.283614e-003 0.000000e+000
      vertex   -2.870854e-002 1.291790e-003 0.000000e+000
      vertex   -3.148050e-002 2.283614e-003 1.500000e-002
    endloop
  endfacet
  facet normal 0.000000e+000 -1.000000e+000 0.000000e+000
    outer loop
      vertex   -2.000000e-002 0.000000e+000 0.000000e+000
      vertex   2.000000e-002 0.000000e+000 0.000000e+000
      vertex   -2.000000e-002 0.000000e+000 1.500000e-002
    endloop
  endfacet
  facet normal 0.000000e+000 -1.000000e+000 0.000000e+000
    outer loop
      vertex   -2.000000e-002 0.000000e+000 1.500000e-002
      vertex   2.000000e-002 0.000000e+000 0.000000e+000
      vertex   2.000000e-002 0.000000e+000 1.500000e-002
    endloop
  endfacet
  facet normal 9.987955e-001 -4.906767e-002 0.000000e+000
    outer loop
      vertex   5.000000e-002 3.000000e-002 0.000000e+000
      vertex   5.000000e-002 3.000000e-002 1.500000e-002
      vertex   4.985554e-002 2.705949e-002 0.000000e+000
    endloop
  endfacet
  facet normal 9.987955e-001 -4.906767e-002 0.000000e+000
    outer loop
      vertex   4.985554e-002 2.705949e-002 0.000000e+000
      vertex   5.000000e-002 3.000000e-002 1.500000e-002
      vertex   4.985554e-002 2.705949e-002 1.500000e-002
    endloop
  endfacet
  facet normal 9.891765e-001 -1.467305e-001 0.000000e+000
    outer loop
      vertex   4.942356e-002 2.414729e-002 1.500000e-002
      vertex   4.985554e-002 2.705949e-002 0.000000e+000
      vertex   4.985554e-002 2.705949e-002 1.500000e-002
    endloop
  endfacet
  facet normal 9.891765e-001 -1.467305e-001 0.000000e+000
    outer loop
      vertex   4.942356e-002 2.414729e-002 1.500000e-002
      vertex   4.942356e-002 2.414729e-002 0.000000e+000
      vertex   4.985554e-002 2.705949e-002 0.000000e+000
    endloop
  endfacet
  facet normal 9.700313e-001 -2.429802e-001 0.000000e+000
    outer loop
      vertex   4.942356e-002 2.414729e-002 1.500000e-002
      vertex   4.870821e-002 2.129146e-002 1.500000e-002
      vertex   4.942356e-002 2.414729e-002 0.000000e+000
    endloop
  endfacet
  facet normal 9.700313e-001 -2.429802e-001 0.000000e+000
    outer loop
      vertex   4.942356e-002 2.414729e-002 0.000000e+000
      vertex   4.870821e-002 2.129146e-002 1.500000e-002
      vertex   4.870821e-002 2.129146e-002 0.000000e+000
    endloop
  endfacet
  facet normal 9.415441e-001 -3.368899e-001 0.000000e+000
    outer loop
      vertex   4.870821e-002 2.129146e-002 0.000000e+000
      vertex   4.870821e-002 2.129146e-002 1.500000e-002
      vertex   4.771639e-002 1.851950e-002 1.500000e-002
    endloop
  endfacet
  facet normal 9.039893e-001 -4.275551e-001 0.000000e+000
    outer loop
      vertex   4.771639e-002 1.851950e-002 0.000000e+000
      vertex   4.771639e-002 1.851950e-002 1.500000e-002
      vertex   4.645764e-002 1.585810e-002 1.500000e-002
    endloop
  endfacet
  facet normal 8.577286e-001 -5.141027e-001 0.000000e+000
    outer loop
      vertex   4.645764e-002 1.585810e-002 0.000000e+000
      vertex   4.645764e-002 1.585810e-002 1.500000e-002
      vertex   4.494409e-002 1.333289e-002 0.000000e+000
    endloop
  endfacet
  facet normal 9.039893e-001 -4.275551e-001 0.000000e+000
    outer loop
      vertex   4.645764e-002 1.585810e-002 0.000000e+000
      vertex   4.771639e-002 1.851950e-002 0.000000e+000
      vertex   4.645764e-002 1.585810e-002 1.500000e-002
    endloop
  endfacet
  facet normal 8.577286e-001 -5.141027e-001 0.000000e+000
    outer loop
      vertex   4.645764e-002 1.585810e-002 1.500000e-002
      vertex   4.494409e-002 1.333289e-002 1.500000e-002
      vertex   4.494409e-002 1.333289e-002 0.000000e+000
    endloop
  endfacet
  facet normal 8.032075e-001 -5.956993e-001 0.000000e+000
    outer loop
      vertex   4.494409e-002 1.333289e-002 0.000000e+000
      vertex   4.494409e-002 1.333289e-002 1.500000e-002
      vertex   4.319031e-002 1.096820e-002 1.500000e-002
    endloop
  endfacet
  facet normal 7.409511e-001 -6.715590e-001 0.000000e+000
    outer loop
      vertex   4.319031e-002 1.096820e-002 0.000000e+000
      vertex   4.319031e-002 1.096820e-002 1.500000e-002
      vertex   4.121320e-002 8.786797e-003 1.500000e-002
    endloop
  endfacet
  facet normal 6.715590e-001 -7.409511e-001 0.000000e+000
    outer loop
      vertex   4.121320e-002 8.786797e-003 0.000000e+000
      vertex   4.121320e-002 8.786797e-003 1.500000e-002
      vertex   3.903180e-002 6.809686e-003 1.500000e-002
    endloop
  endfacet
  facet normal 5.956993e-001 -8.032075e-001 0.000000e+000
    outer loop
      vertex   3.903180e-002 6.809686e-003 0.000000e+000
      vertex   3.903180e-002 6.809686e-003 1.500000e-002
      vertex   3.666711e-002 5.055912e-003 1.500000e-002
    endloop
  endfacet
  facet normal 5.141027e-001 -8.577286e-001 0.000000e+000
    outer loop
      vertex   3.666711e-002 5.055912e-003 0.000000e+000
      vertex   3.666711e-002 5.055912e-003 1.500000e-002
      vertex   3.414190e-002 3.542362e-003 0.000000e+000
    endloop
  endfacet
  facet normal 5.956993e-001 -8.032075e-001 0.000000e+000
    outer loop
      vertex   3.666711e-002 5.055912e-003 0.000000e+000
      vertex   3.903180e-002 6.809686e-003 0.000000e+000
      vertex   3.666711e-002 5.055912e-003 1.500000e-002
    endloop
  endfacet
  facet normal 5.141027e-001 -8.577286e-001 0.000000e+000
    outer loop
      vertex   3.666711e-002 5.055912e-003 1.500000e-002
      vertex   3.414190e-002 3.542362e-003 1.500000e-002
      vertex   3.414190e-002 3.542362e-003 0.000000e+000
    endloop
  endfacet
  facet normal 4.275551e-001 -9.039893e-001 0.000000e+000
    outer loop
      vertex   3.414190e-002 3.542362e-003 0.000000e+000
      vertex   3.414190e-002 3.542362e-003 1.500000e-002
      vertex   3.148050e-002 2.283614e-003 1.500000e-002
    endloop
  endfacet
  facet normal 3.368899e-001 -9.415441e-001 0.000000e+000
    outer loop
      vertex   3.148050e-002 2.283614e-003 0.000000e+000
      vertex   3.148050e-002 2.283614e-003 1.500000e-002
      vertex   2.870854e-002 1.291790e-003 1.500000e-002
    endloop
  endfacet
  facet normal 2.429802e-001 -9.700313e-001 0.000000e+000
    outer loop
      vertex   2.870854e-002 1.291790e-003 0.000000e+000
      vertex   2.870854e-002 1.291790e-003 1.500000e-002
      vertex   2.585271e-002 5.764416e-004 1.500000e-002
    endloop
  endfacet
  facet normal 1.467305e-001 -9.891765e-001 0.000000e+000
    outer loop
      vertex   2.585271e-002 5.764416e-004 0.000000e+000
      vertex   2.585271e-002 5.764416e-004 1.500000e-002
      vertex   2.294051e-002 1.444582e-004 1.500000e-002
    endloop
  endfacet
  facet normal 4.906767e-002 -9.987955e-001 0.000000e+000
    outer loop
      vertex   2.294051e-002 1.444582e-004 0.000000e+000
      vertex   2.294051e-002 1.444582e-004 1.500000e-002
      vertex   2.000000e-002 0.000000e+000 0.000000e+000
    endloop
  endfacet
  facet normal 1.467305e-001 -9.891765e-001 0.000000e+000
    outer loop
      vertex   2.294051e-002 1.444582e-004 0.000000e+000
      vertex   2.585271e-002 5.764416e-004 0.000000e+000
      vertex   2.294051e-002 1.444582e-004 1.500000e-002
    endloop
  endfacet
  facet normal 4.906767e-002 -9.987955e-001 0.000000e+000
    outer loop
      vertex   2.294051e-002 1.444582e-004 1.500000e-002
      vertex   2.000000e-002 0.000000e+000 1.500000e-002
      vertex   2.000000e-002 0.000000e+000 0.000000e+000
    endloop
  endfacet
  facet normal 2.429802e-001 -9.700313e-001 0.000000e+000
    outer loop
      vertex   2.585271e-002 5.764416e-004 0.000000e+000
      vertex   2.870854e-002 1.291790e-003 0.000000e+000
      vertex   2.585271e-002 5.764416e-004 1.500000e-002
    endloop
  endfacet
  facet normal 3.368899e-001 -9.415441e-001 0.000000e+000
    outer loop
      vertex   2.870854e-002 1.291790e-003 0.000000e+000
      vertex   3.148050e-002 2.283614e-003 0.000000e+000
      vertex   2.870854e-002 1.291790e-003 1.500000e-002
    endloop
  endfacet
  facet normal 4.275551e-001 -9.039893e-001 0.000000e+000
    outer loop
      vertex   3.148050e-002 2.283614e-003 0.000000e+000
      vertex   3.414190e-002 3.542362e-003 0.000000e+000
      vertex   3.148050e-002 2.283614e-003 1.500000e-002
    endloop
  endfacet
  facet normal 6.715590e-001 -7.409511e-001 0.000000e+000
    outer loop
      vertex   3.903180e-002 6.809686e-003 0.000000e+000
      vertex   4.121320e-002 8.786797e-003 0.000000e+000
      vertex   3.903180e-002 6.809686e-003 1.500000e-002
    endloop
  endfacet
  facet normal 7.409511e-001 -6.715590e-001 0.000000e+000
    outer loop
      vertex   4.121320e-002 8.786797e-003 0.000000e+000
      vertex   4.319031e-002 1.096820e-002 0.000000e+000
      vertex   4.121320e-002 8.786797e-003 1.500000e-002
    endloop
  endfacet
  facet normal 8.032075e-001 -5.956993e-001 0.000000e+000
    outer loop
      vertex   4.319031e-002 1.096820e-002 0.000000e+000
      vertex   4.494409e-002 1.333289e-002 0.000000e+000
      vertex   4.319031e-002 1.096820e-002 1.500000e-002
    endloop
  endfacet
  facet normal 9.415441e-001 -3.368899e-001 0.000000e+000
    outer loop
      vertex   4.771639e-002 1.851950e-002 0.000000e+000
      vertex   4.870821e-002 2.129146e-002 0.000000e+000
      vertex   4.771639e-002 1.851950e-002 1.500000e-002
    endloop
  endfacet
  facet normal 1.000000e+000 0.000000e+000 -0.000000e+000
    outer loop
      vertex   5.000000e-002 3.000000e-002 0.000000e+000
      vertex   5.000000e-002 2.200000e-001 0.000000e+000
      vertex   5.000000e-002 3.000000e-002 1.500000e-002
    endloop
  endfacet
  facet normal 1.000000e+000 -0.000000e+000 0.000000e+000
    outer loop
      vertex   5.000000e-002 3.000000e-002 1.500000e-002
      vertex   5.000000e-002 2.200000e-001 0.000000e+000
      vertex   5.000000e-002 2.200000e-001 1.500000e-002
    endloop
  endfacet
  facet normal 4.906767e-002 9.987955e-001 -0.000000e+000
    outer loop
      vertex   2.000000e-002 2.500000e-001 0.000000e+000
      vertex   2.000000e-002 2.500000e-001 1.500000e-002
      vertex   2.294051e-002 2.498555e-001 0.000000e+000
    endloop
  endfacet
  facet normal 4.906767e-002 9.987955e-001 0.000000e+000
    outer loop
      vertex   2.294051e-002 2.498555e-001 0.000000e+000
      vertex   2.000000e-002 2.500000e-001 1.500000e-002
      vertex   2.294051e-002 2.498555e-001 1.500000e-002
    endloop
  endfacet
  facet normal 1.467305e-001 9.891765e-001 -0.000000e+000
    outer loop
      vertex   2.585271e-002 2.494236e-001 1.500000e-002
      vertex   2.294051e-002 2.498555e-001 0.000000e+000
      vertex   2.294051e-002 2.498555e-001 1.500000e-002
    endloop
  endfacet
  facet normal 1.467305e-001 9.891765e-001 0.000000e+000
    outer loop
      vertex   2.585271e-002 2.494236e-001 1.500000e-002
      vertex   2.585271e-002 2.494236e-001 0.000000e+000
      vertex   2.294051e-002 2.498555e-001 0.000000e+000
    endloop
  endfacet
  facet normal 2.429802e-001 9.700313e-001 0.000000e+000
    outer loop
      vertex   2.585271e-002 2.494236e-001 1.500000e-002
      vertex   2.870854e-002 2.487082e-001 1.500000e-002
      vertex   2.585271e-002 2.494236e-001 0.000000e+000
    endloop
  endfacet
  facet normal 2.429802e-001 9.700313e-001 0.000000e+000
    outer loop
      vertex   2.585271e-002 2.494236e-001 0.000000e+000
      vertex   2.870854e-002 2.487082e-001 1.500000e-002
      vertex   2.870854e-002 2.487082e-001 0.000000e+000
    endloop
  endfacet
  facet normal 3.368899e-001 9.415441e-001 -0.000000e+000
    outer loop
      vertex   2.870854e-002 2.487082e-001 0.000000e+000
      vertex   2.870854e-002 2.487082e-001 1.500000e-002
      vertex   3.148050e-002 2.477164e-001 1.500000e-002
    endloop
  endfacet
  facet normal 4.275551e-001 9.039893e-001 -0.000000e+000
    outer loop
      vertex   3.148050e-002 2.477164e-001 0.000000e+000
      vertex   3.148050e-002 2.477164e-001 1.500000e-002
      vertex   3.414190e-002 2.464576e-001 1.500000e-002
    endloop
  endfacet
  facet normal 5.141027e-001 8.577286e-001 -0.000000e+000
    outer loop
      vertex   3.414190e-002 2.464576e-001 0.000000e+000
      vertex   3.414190e-002 2.464576e-001 1.500000e-002
      vertex   3.666711e-002 2.449441e-001 0.000000e+000
    endloop
  endfacet
  facet normal 4.275551e-001 9.039893e-001 0.000000e+000
    outer loop
      vertex   3.414190e-002 2.464576e-001 0.000000e+000
      vertex   3.148050e-002 2.477164e-001 0.000000e+000
      vertex   3.414190e-002 2.464576e-001 1.500000e-002
    endloop
  endfacet
  facet normal 5.141027e-001 8.577286e-001 0.000000e+000
    outer loop
      vertex   3.414190e-002 2.464576e-001 1.500000e-002
      vertex   3.666711e-002 2.449441e-001 1.500000e-002
      vertex   3.666711e-002 2.449441e-001 0.000000e+000
    endloop
  endfacet
  facet normal 5.956993e-001 8.032075e-001 -0.000000e+000
    outer loop
      vertex   3.666711e-002 2.449441e-001 0.000000e+000
      vertex   3.666711e-002 2.449441e-001 1.500000e-002
      vertex   3.903180e-002 2.431903e-001 1.500000e-002
    endloop
  endfacet
  facet normal 6.715590e-001 7.409511e-001 -0.000000e+000
    outer loop
      vertex   3.903180e-002 2.431903e-001 0.000000e+000
      vertex   3.903180e-002 2.431903e-001 1.500000e-002
      vertex   4.121320e-002 2.412132e-001 1.500000e-002
    endloop
  endfacet
  facet normal 7.409511e-001 6.715590e-001 -0.000000e+000
    outer loop
      vertex   4.121320e-002 2.412132e-001 0.000000e+000
      vertex   4.121320e-002 2.412132e-001 1.500000e-002
      vertex   4.319031e-002 2.390318e-001 1.500000e-002
    endloop
  endfacet
  facet normal 8.032075e-001 5.956993e-001 -0.000000e+000
    outer loop
      vertex   4.319031e-002 2.390318e-001 0.000000e+000
      vertex   4.319031e-002 2.390318e-001 1.500000e-002
      vertex   4.494409e-002 2.366671e-001 1.500000e-002
    endloop
  endfacet
  facet normal 8.577286e-001 5.141027e-001 -0.000000e+000
    outer loop
      vertex   4.494409e-002 2.366671e-001 0.000000e+000
      vertex   4.494409e-002 2.366671e-001 1.500000e-002
      vertex   4.645764e-002 2.341419e-001 0.000000e+000
    endloop
  endfacet
  facet normal 8.032075e-001 5.956993e-001 0.000000e+000
    outer loop
      vertex   4.494409e-002 2.366671e-001 0.000000e+000
      vertex   4.319031e-002 2.390318e-001 0.000000e+000
      vertex   4.494409e-002 2.366671e-001 1.500000e-002
    endloop
  endfacet
  facet normal 8.577286e-001 5.141027e-001 0.000000e+000
    outer loop
      vertex   4.494409e-002 2.366671e-001 1.500000e-002
      vertex   4.645764e-002 2.341419e-001 1.500000e-002
      vertex   4.645764e-002 2.341419e-001 0.000000e+000
    endloop
  endfacet
  facet normal 9.039893e-001 4.275551e-001 -0.000000e+000
    outer loop
      vertex   4.645764e-002 2.341419e-001 0.000000e+000
      vertex   4.645764e-002 2.341419e-001 1.500000e-002
      vertex   4.771639e-002 2.314805e-001 1.500000e-002
    endloop
  endfacet
  facet normal 9.415441e-001 3.368899e-001 -0.000000e+000
    outer loop
      vertex   4.771639e-002 2.314805e-001 0.000000e+000
      vertex   4.771639e-002 2.314805e-001 1.500000e-002
      vertex   4.870821e-002 2.287085e-001 1.500000e-002
    endloop
  endfacet
  facet normal 9.700313e-001 2.429802e-001 -0.000000e+000
    outer loop
      vertex   4.870821e-002 2.287085e-001 0.000000e+000
      vertex   4.870821e-002 2.287085e-001 1.500000e-002
      vertex   4.942356e-002 2.258527e-001 1.500000e-002
    endloop
  endfacet
  facet normal 9.891765e-001 1.467305e-001 -0.000000e+000
    outer loop
      vertex   4.942356e-002 2.258527e-001 0.000000e+000
      vertex   4.942356e-002 2.258527e-001 1.500000e-002
      vertex   4.985554e-002 2.229405e-001 1.500000e-002
    endloop
  endfacet
  facet normal 9.987955e-001 4.906767e-002 -0.000000e+000
    outer loop
      vertex   4.985554e-002 2.229405e-001 0.000000e+000
      vertex   4.985554e-002 2.229405e-001 1.500000e-002
      vertex   5.000000e-002 2.200000e-001 0.000000e+000
    endloop
  endfacet
  facet normal 9.891765e-001 1.467305e-001 0.000000e+000
    outer loop
      vertex   4.985554e-002 2.229405e-001 0.000000e+000
      vertex   4.942356e-002 2.258527e-001 0.000000e+000
      vertex   4.985554e-002 2.229405e-001 1.500000e-002
    endloop
  endfacet
  facet normal 9.987955e-001 4.906767e-002 0.000000e+000
    outer loop
      vertex   4.985554e-002 2.229405e-001 1.500000e-002
      vertex   5.000000e-002 2.200000e-001 1.500000e-002
      vertex   5.000000e-002 2.200000e-001 0.000000e+000
    endloop
  endfacet
  facet normal 9.700313e-001 2.429802e-001 0.000000e+000
    outer loop
      vertex   4.942356e-002 2.258527e-001 0.000000e+000
      vertex   4.870821e-002 2.287085e-001 0.000000e+000
      vertex   4.942356e-002 2.258527e-001 1.500000e-002
    endloop
  endfacet
  facet normal 9.415441e-001 3.368899e-001 0.000000e+000
    outer loop
      vertex   4.870821e-002 2.287085e-001 0.000000e+000
      vertex   4.771639e-002 2.314805e-001 0.000000e+000
      vertex   4.870821e-002 2.287085e-001 1.500000e-002
    endloop
  endfacet
  facet normal 9.039893e-001 4.275551e-001 0.000000e+000
    outer loop
      vertex   4.771639e-002 2.314805e-001 0.000000e+000
      vertex   4.645764e-002 2.341419e-001 0.000000e+000
      vertex   4.771639e-002 2.314805e-001 1.500000e-002
    endloop
  endfacet
  facet normal 7.409511e-001 6.715590e-001 0.000000e+000
    outer loop
      vertex   4.319031e-002 2.390318e-001 0.000000e+000
      vertex   4.121320e-002 2.412132e-001 0.000000e+000
      vertex   4.319031e-002 2.390318e-001 1.500000e-002
    endloop
  endfacet
  facet normal 6.715590e-001 7.409511e-001 0.000000e+000
    outer loop
      vertex   4.121320e-002 2.412132e-001 0.000000e+000
      vertex   3.903180e-002 2.431903e-001 0.000000e+000
      vertex   4.121320e-002 2.412132e-001 1.500000e-002
    endloop
  endfacet
  facet normal 5.956993e-001 8.032075e-001 0.000000e+000
    outer loop
      vertex   3.903180e-002 2.431903e-001 0.000000e+000
      vertex   3.666711e-002 2.449441e-001 0.000000e+000
      vertex   3.903180e-002 2.431903e-001 1.500000e-002
    endloop
  endfacet
  facet normal 3.368899e-001 9.415441e-001 0.000000e+000
    outer loop
      vertex   3.148050e-002 2.477164e-001 0.000000e+000
      vertex   2.870854e-002 2.487082e-001 0.000000e+000
      vertex   3.148050e-002 2.477164e-001 1.500000e-002
    endloop
  endfacet
  facet normal -0.000000e+000 1.000000e+000 0.000000e+000
    outer loop
      vertex   -2.000000e-002 2.500000e-001 1.500000e-002
      vertex   2.000000e-002 2.500000e-001 1.500000e-002
      vertex   -2.000000e-002 2.500000e-001 0.000000e+000
    endloop
  endfacet
  facet normal -0.000000e+000 1.000000e+000 0.000000e+000
    outer loop
      vertex   -2.000000e-002 2.500000e-001 0.000000e+000
      vertex   2.000000e-002 2.500000e-001 1.500000e-002
      vertex   2.000000e-002 2.500000e-001 0.000000e+000
    endloop
  endfacet
  facet normal -0.000000e+000 0.000000e+000 1.000000e+000
    outer loop
      vertex   -2.294051e-002 2.498555e-001 1.500000e-002
      vertex   -5.000000e-002 2.200000e-001 1.500000e-002
      vertex   -2.000000e-002 2.500000e-001 1.500000e-002
    endloop
  endfacet
  facet normal 0.000000e+000 0.000000e+000 1.000000e+000
    outer loop
      vertex   -2.294051e-002 2.498555e-001 1.500000e-002
      vertex   -2.585271e-002 2.494236e-001 1.500000e-002
      vertex   -5.000000e-002 2.200000e-001 1.500000e-002
    endloop
  endfacet
  facet normal 0.000000e+000 -0.000000e+000 1.000000e+000
    outer loop
      vertex   -5.000000e-002 2.200000e-001 1.500000e-002
      vertex   -2.585271e-002 2.494236e-001 1.500000e-002
      vertex   -2.870854e-002 2.487082e-001 1.500000e-002
    endloop
  endfacet
  facet normal -0.000000e+000 0.000000e+000 1.000000e+000
    outer loop
      vertex   -3.148050e-002 2.477164e-001 1.500000e-002
      vertex   -5.000000e-002 2.200000e-001 1.500000e-002
      vertex   -2.870854e-002 2.487082e-001 1.500000e-002
    endloop
  endfacet
  facet normal 0.000000e+000 0.000000e+000 1.000000e+000
    outer loop
      vertex   -3.148050e-002 2.477164e-001 1.500000e-002
      vertex   -3.414190e-002 2.464576e-001 1.500000e-002
      vertex   -5.000000e-002 2.200000e-001 1.500000e-002
    endloop
  endfacet
  facet normal 0.000000e+000 -0.000000e+000 1.000000e+000
    outer loop
      vertex   -5.000000e-002 2.200000e-001 1.500000e-002
      vertex   -3.414190e-002 2.464576e-001 1.500000e-002
      vertex   -3.666711e-002 2.449441e-001 1.500000e-002
    endloop
  endfacet
  facet normal -0.000000e+000 0.000000e+000 1.000000e+000
    outer loop
      vertex   -3.903180e-002 2.431903e-001 1.500000e-002
      vertex   -5.000000e-002 2.200000e-001 1.500000e-002
      vertex   -3.666711e-002 2.449441e-001 1.500000e-002
    endloop
  endfacet
  facet normal 0.000000e+000 0.000000e+000 1.000000e+000
    outer loop
      vertex   -3.903180e-002 2.431903e-001 1.500000e-002
      vertex   -4.121320e-002 2.412132e-001 1.500000e-002
      vertex   -5.000000e-002 2.200000e-001 1.500000e-002
    endloop
  endfacet
  facet normal 0.000000e+000 -0.000000e+000 1.000000e+000
    outer loop
      vertex   -5.000000e-002 2.200000e-001 1.500000e-002
      vertex   -4.121320e-002 2.412132e-001 1.500000e-002
      vertex   -4.319031e-002 2.390318e-001 1.500000e-002
    endloop
  endfacet
  facet normal -0.000000e+000 0.000000e+000 1.000000e+000
    outer loop
      vertex   -4.494409e-002 2.366671e-001 1.500000e-002
      vertex   -5.000000e-002 2.200000e-001 1.500000e-002
      vertex   -4.319031e-002 2.390318e-001 1.500000e-002
    endloop
  endfacet
  facet normal 0.000000e+000 0.000000e+000 1.000000e+000
    outer loop
      vertex   -4.494409e-002 2.366671e-001 1.500000e-002
      vertex   -4.645764e-002 2.341419e-001 1.500000e-002
      vertex   -5.000000e-002 2.200000e-001 1.500000e-002
    endloop
  endfacet
  facet normal 0.000000e+000 -0.000000e+000 1.000000e+000
    outer loop
      vertex   -5.000000e-002 2.200000e-001 1.500000e-002
      vertex   -4.645764e-002 2.341419e-001 1.500000e-002
      vertex   -4.771639e-002 2.314805e-001 1.500000e-002
    endloop
  endfacet
  facet normal -0.000000e+000 0.000000e+000 1.000000e+000
    outer loop
      vertex   -4.870821e-002 2.287085e-001 1.500000e-002
      vertex   -5.000000e-002 2.200000e-001 1.500000e-002
      vertex   -4.771639e-002 2.314805e-001 1.500000e-002
    endloop
  endfacet
  facet normal 0.000000e+000 0.000000e+000 1.000000e+000
    outer loop
      vertex   -4.870821e-002 2.287085e-001 1.500000e-002
      vertex   -4.942356e-002 2.258527e-001 1.500000e-002
      vertex   -5.000000e-002 2.200000e-001 1.500000e-002
    endloop
  endfacet
  facet normal 0.000000e+000 -0.000000e+000 1.000000e+000
    outer loop
      vertex   -5.000000e-002 2.200000e-001 1.500000e-002
      vertex   -4.942356e-002 2.258527e-001 1.500000e-002
      vertex   -4.985554e-002 2.229405e-001 1.500000e-002
    endloop
  endfacet
  facet normal 0.000000e+000 -0.000000e+000 1.000000e+000
    outer loop
      vertex   -2.000000e-002 0.000000e+000 1.500000e-002
      vertex   2.000000e-002 0.000000e+000 1.500000e-002
      vertex   -2.294051e-002 1.444582e-004 1.500000e-002
    endloop
  endfacet
  facet normal -0.000000e+000 0.000000e+000 1.000000e+000
    outer loop
      vertex   -2.294051e-002 1.444582e-004 1.500000e-002
      vertex   2.000000e-002 0.000000e+000 1.500000e-002
      vertex   2.294051e-002 1.444582e-004 1.500000e-002
    endloop
  endfacet
  facet normal -0.000000e+000 0.000000e+000 1.000000e+000
    outer loop
      vertex   -2.585271e-002 5.764416e-004 1.500000e-002
      vertex   2.294051e-002 1.444582e-004 1.500000e-002
      vertex   2.585271e-002 5.764416e-004 1.500000e-002
    endloop
  endfacet
  facet normal -0.000000e+000 0.000000e+000 1.000000e+000
    outer loop
      vertex   -2.870854e-002 1.291790e-003 1.500000e-002
      vertex   2.585271e-002 5.764416e-004 1.500000e-002
      vertex   2.870854e-002 1.291790e-003 1.500000e-002
    endloop
  endfacet
  facet normal -0.000000e+000 0.000000e+000 1.000000e+000
    outer loop
      vertex   -3.148050e-002 2.283614e-003 1.500000e-002
      vertex   2.870854e-002 1.291790e-003 1.500000e-002
      vertex   3.148050e-002 2.283614e-003 1.500000e-002
    endloop
  endfacet
  facet normal -0.000000e+000 0.000000e+000 1.000000e+000
    outer loop
      vertex   -3.414190e-002 3.542362e-003 1.500000e-002
      vertex   3.148050e-002 2.283614e-003 1.500000e-002
      vertex   3.414190e-002 3.542362e-003 1.500000e-002
    endloop
  endfacet
  facet normal -0.000000e+000 0.000000e+000 1.000000e+000
    outer loop
      vertex   -3.666711e-002 5.055912e-003 1.500000e-002
      vertex   3.414190e-002 3.542362e-003 1.500000e-002
      vertex   3.666711e-002 5.055912e-003 1.500000e-002
    endloop
  endfacet
  facet normal -0.000000e+000 0.000000e+000 1.000000e+000
    outer loop
      vertex   -3.903180e-002 6.809686e-003 1.500000e-002
      vertex   3.666711e-002 5.055912e-003 1.500000e-002
      vertex   3.903180e-002 6.809686e-003 1.500000e-002
    endloop
  endfacet
  facet normal -0.000000e+000 0.000000e+000 1.000000e+000
    outer loop
      vertex   -4.121320e-002 8.786797e-003 1.500000e-002
      vertex   3.903180e-002 6.809686e-003 1.500000e-002
      vertex   4.121320e-002 8.786797e-003 1.500000e-002
    endloop
  endfacet
  facet normal -0.000000e+000 0.000000e+000 1.000000e+000
    outer loop
      vertex   -4.319031e-002 1.096820e-002 1.500000e-002
      vertex   4.121320e-002 8.786797e-003 1.500000e-002
      vertex   4.319031e-002 1.096820e-002 1.500000e-002
    endloop
  endfacet
  facet normal -0.000000e+000 0.000000e+000 1.000000e+000
    outer loop
      vertex   -4.494409e-002 1.333289e-002 1.500000e-002
      vertex   4.319031e-002 1.096820e-002 1.500000e-002
      vertex   4.494409e-002 1.333289e-002 1.500000e-002
    endloop
  endfacet
  facet normal -0.000000e+000 0.000000e+000 1.000000e+000
    outer loop
      vertex   -4.645764e-002 1.585810e-002 1.500000e-002
      vertex   4.494409e-002 1.333289e-002 1.500000e-002
      vertex   4.645764e-002 1.585810e-002 1.500000e-002
    endloop
  endfacet
  facet normal -0.000000e+000 0.000000e+000 1.000000e+000
    outer loop
      vertex   -4.771639e-002 1.851950e-002 1.500000e-002
      vertex   4.645764e-002 1.585810e-002 1.500000e-002
      vertex   4.771639e-002 1.851950e-002 1.500000e-002
    endloop
  endfacet
  facet normal -0.000000e+000 0.000000e+000 1.000000e+000
    outer loop
      vertex   -4.870821e-002 2.129146e-002 1.500000e-002
      vertex   4.771639e-002 1.851950e-002 1.500000e-002
      vertex   4.870821e-002 2.129146e-002 1.500000e-002
    endloop
  endfacet
  facet normal -0.000000e+000 0.000000e+000 1.000000e+000
    outer loop
      vertex   -4.942356e-002 2.414729e-002 1.500000e-002
      vertex   4.870821e-002 2.129146e-002 1.500000e-002
      vertex   4.942356e-002 2.414729e-002 1.500000e-002
    endloop
  endfacet
  facet normal -0.000000e+000 0.000000e+000 1.000000e+000
    outer loop
      vertex   -4.985554e-002 2.705949e-002 1.500000e-002
      vertex   4.942356e-002 2.414729e-002 1.500000e-002
      vertex   4.985554e-002 2.705949e-002 1.500000e-002
    endloop
  endfacet
  facet normal -0.000000e+000 0.000000e+000 1.000000e+000
    outer loop
      vertex   -5.000000e-002 3.000000e-002 1.500000e-002
      vertex   4.985554e-002 2.705949e-002 1.500000e-002
      vertex   5.000000e-002 3.000000e-002 1.500000e-002
    endloop
  endfacet
  facet normal -0.000000e+000 0.000000e+000 1.000000e+000
    outer loop
      vertex   -5.000000e-002 2.200000e-001 1.500000e-002
      vertex   5.000000e-002 3.000000e-002 1.500000e-002
      vertex   5.000000e-002 2.200000e-001 1.500000e-002
    endloop
  endfacet
  facet normal -0.000000e+000 -0.000000e+000 1.000000e+000
    outer loop
      vertex   -2.000000e-002 2.500000e-001 1.500000e-002
      vertex   5.000000e-002 2.200000e-001 1.500000e-002
      vertex   2.000000e-002 2.500000e-001 1.500000e-002
    endloop
  endfacet
  facet normal -0.000000e+000 0.000000e+000 1.000000e+000
    outer loop
      vertex   -2.000000e-002 2.500000e-001 1.500000e-002
      vertex   -5.000000e-002 2.200000e-001 1.500000e-002
      vertex   5.000000e-002 2.200000e-001 1.500000e-002
    endloop
  endfacet
  facet normal -0.000000e+000 0.000000e+000 1.000000e+000
    outer loop
      vertex   -5.000000e-002 3.000000e-002 1.500000e-002
      vertex   -4.985554e-002 2.705949e-002 1.500000e-002
      vertex   4.985554e-002 2.705949e-002 1.500000e-002
    endloop
  endfacet
  facet normal -0.000000e+000 0.000000e+000 1.000000e+000
    outer loop
      vertex   -4.985554e-002 2.705949e-002 1.500000e-002
      vertex   -4.942356e-002 2.414729e-002 1.500000e-002
      vertex   4.942356e-002 2.414729e-002 1.500000e-002
    endloop
  endfacet
  facet normal -0.000000e+000 0.000000e+000 1.000000e+000
    outer loop
      vertex   -4.942356e-002 2.414729e-002 1.500000e-002
      vertex   -4.870821e-002 2.129146e-002 1.500000e-002
      vertex   4.870821e-002 2.129146e-002 1.500000e-002
    endloop
  endfacet
  facet normal -0.000000e+000 0.000000e+000 1.000000e+000
    outer loop
      vertex   -4.870821e-002 2.129146e-002 1.500000e-002
      vertex   -4.771639e-002 1.851950e-002 1.500000e-002
      vertex   4.771639e-002 1.851950e-002 1.500000e-002
    endloop
  endfacet
  facet normal -0.000000e+000 0.000000e+000 1.000000e+000
    outer loop
      vertex   -4.771639e-002 1.851950e-002 1.500000e-002
      vertex   -4.645764e-002 1.585810e-002 1.500000e-002
      vertex   4.645764e-002 1.585810e-002 1.500000e-002
    endloop
  endfacet
  facet normal -0.000000e+000 0.000000e+000 1.000000e+000
    outer loop
      vertex   -4.645764e-002 1.585810e-002 1.500000e-002
      vertex   -4.494409e-002 1.333289e-002 1.500000e-002
      vertex   4.494409e-002 1.333289e-002 1.500000e-002
    endloop
  endfacet
  facet normal -0.000000e+000 0.000000e+000 1.000000e+000
    outer loop
      vertex   -4.494409e-002 1.333289e-002 1.500000e-002
      vertex   -4.319031e-002 1.096820e-002 1.500000e-002
      vertex   4.319031e-002 1.096820e-002 1.500000e-002
    endloop
  endfacet
  facet normal -0.000000e+000 0.000000e+000 1.000000e+000
    outer loop
      vertex   -4.319031e-002 1.096820e-002 1.500000e-002
      vertex   -4.121320e-002 8.786797e-003 1.500000e-002
      vertex   4.121320e-002 8.786797e-003 1.500000e-002
    endloop
  endfacet
  facet normal -0.000000e+000 0.000000e+000 1.000000e+000
    outer loop
      vertex   -4.121320e-002 8.786797e-003 1.500000e-002
      vertex   -3.903180e-002 6.809686e-003 1.500000e-002
      vertex   3.903180e-002 6.809686e-003 1.500000e-002
    endloop
  endfacet
  facet normal -0.000000e+000 0.000000e+000 1.000000e+000
    outer loop
      vertex   -3.903180e-002 6.809686e-003 1.500000e-002
      vertex   -3.666711e-002 5.055912e-003 1.500000e-002
      vertex   3.666711e-002 5.055912e-003 1.500000e-002
    endloop
  endfacet
  facet normal -0.000000e+000 0.000000e+000 1.000000e+000
    outer loop
      vertex   -3.666711e-002 5.055912e-003 1.500000e-002
      vertex   -3.414190e-002 3.542362e-003 1.500000e-002
      vertex   3.414190e-002 3.542362e-003 1.500000e-002
    endloop
  endfacet
  facet normal -0.000000e+000 0.000000e+000 1.000000e+000
    outer loop
      vertex   -3.414190e-002 3.542362e-003 1.500000e-002
      vertex   -3.148050e-002 2.283614e-003 1.500000e-002
      vertex   3.148050e-002 2.283614e-003 1.500000e-002
    endloop
  endfacet
  facet normal -0.000000e+000 0.000000e+000 1.000000e+000
    outer loop
      vertex   -3.148050e-002 2.283614e-003 1.500000e-002
      vertex   -2.870854e-002 1.291790e-003 1.500000e-002
      vertex   2.870854e-002 1.291790e-003 1.500000e-002
    endloop
  endfacet
  facet normal -0.000000e+000 0.000000e+000 1.000000e+000
    outer loop
      vertex   -2.870854e-002 1.291790e-003 1.500000e-002
      vertex   -2.585271e-002 5.764416e-004 1.500000e-002
      vertex   2.585271e-002 5.764416e-004 1.500000e-002
    endloop
  endfacet
  facet normal -0.000000e+000 0.000000e+000 1.000000e+000
    outer loop
      vertex   -2.585271e-002 5.764416e-004 1.500000e-002
      vertex   -2.294051e-002 1.444582e-004 1.500000e-002
      vertex   2.294051e-002 1.444582e-004 1.500000e-002
    endloop
  endfacet
  facet normal 0.000000e+000 0.000000e+000 1.000000e+000
    outer loop
      vertex   4.985554e-002 2.229405e-001 1.500000e-002
      vertex   4.942356e-002 2.258527e-001 1.500000e-002
      vertex   5.000000e-002 2.200000e-001 1.500000e-002
    endloop
  endfacet
  facet normal 0.000000e+000 0.000000e+000 1.000000e+000
    outer loop
      vertex   5.000000e-002 2.200000e-001 1.500000e-002
      vertex   4.942356e-002 2.258527e-001 1.500000e-002
      vertex   4.870821e-002 2.287085e-001 1.500000e-002
    endloop
  endfacet
  facet normal -0.000000e+000 -0.000000e+000 1.000000e+000
    outer loop
      vertex   4.771639e-002 2.314805e-001 1.500000e-002
      vertex   5.000000e-002 2.200000e-001 1.500000e-002
      vertex   4.870821e-002 2.287085e-001 1.500000e-002
    endloop
  endfacet
  facet normal 0.000000e+000 0.000000e+000 1.000000e+000
    outer loop
      vertex   4.771639e-002 2.314805e-001 1.500000e-002
      vertex   4.645764e-002 2.341419e-001 1.500000e-002
      vertex   5.000000e-002 2.200000e-001 1.500000e-002
    endloop
  endfacet
  facet normal 0.000000e+000 0.000000e+000 1.000000e+000
    outer loop
      vertex   5.000000e-002 2.200000e-001 1.500000e-002
      vertex   4.645764e-002 2.341419e-001 1.500000e-002
      vertex   4.494409e-002 2.366671e-001 1.500000e-002
    endloop
  endfacet
  facet normal -0.000000e+000 -0.000000e+000 1.000000e+000
    outer loop
      vertex   4.319031e-002 2.390318e-001 1.500000e-002
      vertex   5.000000e-002 2.200000e-001 1.500000e-002
      vertex   4.494409e-002 2.366671e-001 1.500000e-002
    endloop
  endfacet
  facet normal 0.000000e+000 0.000000e+000 1.000000e+000
    outer loop
      vertex   4.319031e-002 2.390318e-001 1.500000e-002
      vertex   4.121320e-002 2.412132e-001 1.500000e-002
      vertex   5.000000e-002 2.200000e-001 1.500000e-002
    endloop
  endfacet
  facet normal 0.000000e+000 0.000000e+000 1.000000e+000
    outer loop
      vertex   5.000000e-002 2.200000e-001 1.500000e-002
      vertex   4.121320e-002 2.412132e-001 1.500000e-002
      vertex   3.903180e-002 2.431903e-001 1.500000e-002
    endloop
  endfacet
  facet normal -0.000000e+000 -0.000000e+000 1.000000e+000
    outer loop
      vertex   3.666711e-002 2.449441e-001 1.500000e-002
      vertex   5.000000e-002 2.200000e-001 1.500000e-002
      vertex   3.903180e-002 2.431903e-001 1.500000e-002
    endloop
  endfacet
  facet normal 0.000000e+000 0.000000e+000 1.000000e+000
    outer loop
      vertex   3.666711e-002 2.449441e-001 1.500000e-002
      vertex   3.414190e-002 2.464576e-001 1.500000e-002
      vertex   5.000000e-002 2.200000e-001 1.500000e-002
    endloop
  endfacet
  facet normal 0.000000e+000 0.000000e+000 1.000000e+000
    outer loop
      vertex   5.000000e-002 2.200000e-001 1.500000e-002
      vertex   3.414190e-002 2.464576e-001 1.500000e-002
      vertex   3.148050e-002 2.477164e-001 1.500000e-002
    endloop
  endfacet
  facet normal -0.000000e+000 -0.000000e+000 1.000000e+000
    outer loop
      vertex   2.870854e-002 2.487082e-001 1.500000e-002
      vertex   5.000000e-002 2.200000e-001 1.500000e-002
      vertex   3.148050e-002 2.477164e-001 1.500000e-002
    endloop
  endfacet
  facet normal 0.000000e+000 0.000000e+000 1.000000e+000
    outer loop
      vertex   2.870854e-002 2.487082e-001 1.500000e-002
      vertex   2.585271e-002 2.494236e-001 1.500000e-002
      vertex   5.000000e-002 2.200000e-001 1.500000e-002
    endloop
  endfacet
  facet normal 0.000000e+000 0.000000e+000 1.000000e+000
    outer loop
      vertex   5.000000e-002 2.200000e-001 1.500000e-002
      vertex   2.585271e-002 2.494236e-001 1.500000e-002
      vertex   2.294051e-002 2.498555e-001 1.500000e-002
    endloop
  endfacet
  facet normal -0.000000e+000 -0.000000e+000 1.000000e+000
    outer loop
      vertex   2.000000e-002 2.500000e-001 1.500000e-002
      vertex   5.000000e-002 2.200000e-001 1.500000e-002
      vertex   2.294051e-002 2.498555e-001 1.500000e-002
    endloop
  endfacet
  facet normal 0.000000e+000 -0.000000e+000 1.000000e+000
    outer loop
      vertex   -5.000000e-002 3.000000e-002 1.500000e-002
      vertex   5.000000e-002 3.000000e-002 1.500000e-002
      vertex   -5.000000e-002 2.200000e-001 1.500000e-002
    endloop
  endfacet
endsolid
